<svg width="64" height="41" viewBox="0 0 64 41" fill="none" xmlns="http://www.w3.org/2000/svg">
<rect y="0.976685" width="64" height="40" rx="20" fill="#FFE1CC"/>
<path d="M32 10.9767C26.48 10.9767 22 15.4567 22 20.9767C22 26.4967 26.48 30.9767 32 30.9767C37.52 30.9767 42 26.4967 42 20.9767C42 15.4567 37.52 10.9767 32 10.9767ZM32 14.9767C33.93 14.9767 35.5 16.5467 35.5 18.4767C35.5 20.4067 33.93 21.9767 32 21.9767C30.07 21.9767 28.5 20.4067 28.5 18.4767C28.5 16.5467 30.07 14.9767 32 14.9767ZM32 28.9767C29.97 28.9767 27.57 28.1567 25.86 26.0967C27.6116 24.7224 29.7736 23.9755 32 23.9755C34.2264 23.9755 36.3884 24.7224 38.14 26.0967C36.43 28.1567 34.03 28.9767 32 28.9767Z" fill="#FF6B00"/>
</svg>
